<mxfile host="app.diagrams.net" modified="2024-06-09T04:03:14.444Z" agent="Mozilla/5.0 (Windows NT 10.0; Win64; x64) AppleWebKit/537.36 (KHTML, like Gecko) Chrome/125.0.0.0 Safari/537.36" etag="-eyvvxGXaBhNoAVyASjT" version="24.4.15" type="device">
  <diagram name="ページ1" id="uaLlYwB30T-NUCDmnAzk">
    <mxGraphModel dx="1688" dy="1140" grid="0" gridSize="10" guides="1" tooltips="1" connect="1" arrows="1" fold="1" page="0" pageScale="1" pageWidth="827" pageHeight="1169" math="0" shadow="0">
      <root>
        <mxCell id="0" />
        <mxCell id="1" parent="0" />
        <mxCell id="xV1cB78PNP5FavdaAe3y-1" value="カレンダー画面" style="rounded=0;whiteSpace=wrap;html=1;" vertex="1" parent="1">
          <mxGeometry x="-100" y="14" width="160" height="80" as="geometry" />
        </mxCell>
        <mxCell id="xV1cB78PNP5FavdaAe3y-2" value="キャラクターリスト画面" style="rounded=0;whiteSpace=wrap;html=1;" vertex="1" parent="1">
          <mxGeometry x="-100" y="149" width="160" height="80" as="geometry" />
        </mxCell>
        <mxCell id="xV1cB78PNP5FavdaAe3y-5" value="" style="edgeStyle=none;orthogonalLoop=1;jettySize=auto;html=1;endArrow=classic;startArrow=classic;endSize=8;startSize=8;rounded=0;fontSize=12;curved=1;exitX=0.5;exitY=1;exitDx=0;exitDy=0;" edge="1" parent="1" source="xV1cB78PNP5FavdaAe3y-1" target="xV1cB78PNP5FavdaAe3y-2">
          <mxGeometry width="140" relative="1" as="geometry">
            <mxPoint x="102" y="51" as="sourcePoint" />
            <mxPoint x="242" y="51" as="targetPoint" />
            <Array as="points" />
          </mxGeometry>
        </mxCell>
        <mxCell id="xV1cB78PNP5FavdaAe3y-6" value="キャラクター追加画面" style="rounded=0;whiteSpace=wrap;html=1;" vertex="1" parent="1">
          <mxGeometry x="193" y="100" width="160" height="80" as="geometry" />
        </mxCell>
        <mxCell id="xV1cB78PNP5FavdaAe3y-7" value="キャラクター編集画面" style="rounded=0;whiteSpace=wrap;html=1;" vertex="1" parent="1">
          <mxGeometry x="193" y="199" width="160" height="80" as="geometry" />
        </mxCell>
        <mxCell id="xV1cB78PNP5FavdaAe3y-12" value="ログイン画面" style="rounded=0;whiteSpace=wrap;html=1;" vertex="1" parent="1">
          <mxGeometry x="193" y="-63" width="160" height="80" as="geometry" />
        </mxCell>
        <mxCell id="xV1cB78PNP5FavdaAe3y-16" value="" style="edgeStyle=none;orthogonalLoop=1;jettySize=auto;html=1;rounded=0;fontSize=12;startSize=8;endSize=8;curved=1;exitX=1;exitY=0.5;exitDx=0;exitDy=0;entryX=0;entryY=0.5;entryDx=0;entryDy=0;" edge="1" parent="1" source="xV1cB78PNP5FavdaAe3y-1" target="xV1cB78PNP5FavdaAe3y-12">
          <mxGeometry width="140" relative="1" as="geometry">
            <mxPoint x="73" y="150" as="sourcePoint" />
            <mxPoint x="213" y="150" as="targetPoint" />
            <Array as="points" />
          </mxGeometry>
        </mxCell>
        <mxCell id="xV1cB78PNP5FavdaAe3y-17" value="" style="edgeStyle=none;orthogonalLoop=1;jettySize=auto;html=1;rounded=0;fontSize=12;startSize=8;endSize=8;curved=1;exitX=1;exitY=0.5;exitDx=0;exitDy=0;entryX=0;entryY=0.5;entryDx=0;entryDy=0;" edge="1" parent="1" source="xV1cB78PNP5FavdaAe3y-2" target="xV1cB78PNP5FavdaAe3y-6">
          <mxGeometry width="140" relative="1" as="geometry">
            <mxPoint x="70" y="64" as="sourcePoint" />
            <mxPoint x="203" y="-13" as="targetPoint" />
            <Array as="points" />
          </mxGeometry>
        </mxCell>
        <mxCell id="xV1cB78PNP5FavdaAe3y-18" value="" style="edgeStyle=none;orthogonalLoop=1;jettySize=auto;html=1;rounded=0;fontSize=12;startSize=8;endSize=8;curved=1;exitX=1;exitY=0.5;exitDx=0;exitDy=0;entryX=0;entryY=0.5;entryDx=0;entryDy=0;" edge="1" parent="1" source="xV1cB78PNP5FavdaAe3y-2" target="xV1cB78PNP5FavdaAe3y-7">
          <mxGeometry width="140" relative="1" as="geometry">
            <mxPoint x="70" y="199" as="sourcePoint" />
            <mxPoint x="203" y="150" as="targetPoint" />
            <Array as="points" />
          </mxGeometry>
        </mxCell>
        <mxCell id="xV1cB78PNP5FavdaAe3y-19" value="" style="edgeStyle=none;orthogonalLoop=1;jettySize=auto;html=1;rounded=0;fontSize=12;startSize=8;endSize=8;curved=1;exitX=1;exitY=0.5;exitDx=0;exitDy=0;entryX=0;entryY=0.75;entryDx=0;entryDy=0;" edge="1" parent="1" source="xV1cB78PNP5FavdaAe3y-2" target="xV1cB78PNP5FavdaAe3y-12">
          <mxGeometry width="140" relative="1" as="geometry">
            <mxPoint x="70" y="64" as="sourcePoint" />
            <mxPoint x="203" y="-13" as="targetPoint" />
            <Array as="points" />
          </mxGeometry>
        </mxCell>
        <mxCell id="xV1cB78PNP5FavdaAe3y-20" value="ユーザー登録画面" style="rounded=0;whiteSpace=wrap;html=1;" vertex="1" parent="1">
          <mxGeometry x="431" y="-63" width="160" height="80" as="geometry" />
        </mxCell>
        <mxCell id="xV1cB78PNP5FavdaAe3y-21" value="" style="edgeStyle=none;orthogonalLoop=1;jettySize=auto;html=1;rounded=0;fontSize=12;startSize=8;endSize=8;curved=1;exitX=1;exitY=0.5;exitDx=0;exitDy=0;entryX=0;entryY=0.5;entryDx=0;entryDy=0;" edge="1" parent="1" source="xV1cB78PNP5FavdaAe3y-12" target="xV1cB78PNP5FavdaAe3y-20">
          <mxGeometry width="140" relative="1" as="geometry">
            <mxPoint x="298" y="152" as="sourcePoint" />
            <mxPoint x="431" y="-40" as="targetPoint" />
            <Array as="points" />
          </mxGeometry>
        </mxCell>
        <mxCell id="xV1cB78PNP5FavdaAe3y-22" value="パスワード再設定画面" style="rounded=0;whiteSpace=wrap;html=1;" vertex="1" parent="1">
          <mxGeometry x="431" y="25" width="160" height="80" as="geometry" />
        </mxCell>
        <mxCell id="xV1cB78PNP5FavdaAe3y-23" value="" style="edgeStyle=none;orthogonalLoop=1;jettySize=auto;html=1;rounded=0;fontSize=12;startSize=8;endSize=8;curved=1;exitX=1;exitY=0.5;exitDx=0;exitDy=0;entryX=0;entryY=0.5;entryDx=0;entryDy=0;" edge="1" parent="1" source="xV1cB78PNP5FavdaAe3y-12" target="xV1cB78PNP5FavdaAe3y-22">
          <mxGeometry width="140" relative="1" as="geometry">
            <mxPoint x="363" y="-13" as="sourcePoint" />
            <mxPoint x="441" y="-13" as="targetPoint" />
            <Array as="points" />
          </mxGeometry>
        </mxCell>
      </root>
    </mxGraphModel>
  </diagram>
</mxfile>
